<svg width="13" height="13" viewBox="0 0 13 13" fill="none" xmlns="http://www.w3.org/2000/svg">
<circle cx="6.5" cy="6.5" r="3.5" fill="#3322F8"/>
<mask id="path-2-inside-1_33_545" fill="white">
<path d="M6.5 13C8.22391 13 9.87721 12.3152 11.0962 11.0962C12.3152 9.87721 13 8.22391 13 6.5C13 4.77609 12.3152 3.12279 11.0962 1.90381C9.87721 0.68482 8.22391 5.15332e-08 6.5 -2.84124e-07L6.5 0.591849C8.06694 0.591849 9.5697 1.21431 10.6777 2.32231C11.7857 3.4303 12.4082 4.93306 12.4082 6.5C12.4082 8.06694 11.7857 9.5697 10.6777 10.6777C9.5697 11.7857 8.06694 12.4082 6.5 12.4082L6.5 13Z"/>
</mask>
<path d="M6.5 13C8.22391 13 9.87721 12.3152 11.0962 11.0962C12.3152 9.87721 13 8.22391 13 6.5C13 4.77609 12.3152 3.12279 11.0962 1.90381C9.87721 0.68482 8.22391 5.15332e-08 6.5 -2.84124e-07L6.5 0.591849C8.06694 0.591849 9.5697 1.21431 10.6777 2.32231C11.7857 3.4303 12.4082 4.93306 12.4082 6.5C12.4082 8.06694 11.7857 9.5697 10.6777 10.6777C9.5697 11.7857 8.06694 12.4082 6.5 12.4082L6.5 13Z" stroke="#3322F8" stroke-width="2" mask="url(#path-2-inside-1_33_545)"/>
</svg>
