<svg width="100%" height="100%" viewBox="0 0 258 56" fill="none" xmlns="http://www.w3.org/2000/svg">
<path d="M88.0728 1.54387V26.7269H83.0158V24.6227C81.7035 26.2065 79.8029 26.9984 77.314 26.9984C75.5944 26.9984 74.0332 26.6138 72.6304 25.8445C71.2502 25.0752 70.1641 23.9778 69.3722 22.5524C68.5803 21.1269 68.1843 19.4752 68.1843 17.5972C68.1843 15.7192 68.5803 14.0675 69.3722 12.6421C70.1641 11.2166 71.2502 10.1192 72.6304 9.34994C74.0332 8.58064 75.5944 8.196 77.314 8.196C79.6445 8.196 81.4659 8.93135 82.7783 10.4021V1.54387H88.0728ZM78.2304 22.6542C79.5653 22.6542 80.674 22.2017 81.5564 21.2966C82.4389 20.3689 82.8801 19.1358 82.8801 17.5972C82.8801 16.0586 82.4389 14.8368 81.5564 13.9318C80.674 13.0041 79.5653 12.5402 78.2304 12.5402C76.8728 12.5402 75.7528 13.0041 74.8704 13.9318C73.988 14.8368 73.5468 16.0586 73.5468 17.5972C73.5468 19.1358 73.988 20.3689 74.8704 21.2966C75.7528 22.2017 76.8728 22.6542 78.2304 22.6542Z" fill="white"/>
<path d="M108.314 17.6651C108.314 17.733 108.28 18.2081 108.212 19.0905H94.3985C94.6474 20.2219 95.2357 21.1156 96.1634 21.7718C97.0911 22.4279 98.245 22.756 99.6252 22.756C100.576 22.756 101.413 22.6202 102.137 22.3487C102.883 22.0546 103.573 21.6021 104.207 20.9911L107.024 24.0457C105.304 26.0142 102.793 26.9984 99.4894 26.9984C97.4305 26.9984 95.609 26.6025 94.0252 25.8105C92.4414 24.996 91.2195 23.876 90.3597 22.4505C89.4999 21.0251 89.07 19.4073 89.07 17.5972C89.07 15.8097 89.4886 14.2033 90.3258 12.7778C91.1856 11.3297 92.3509 10.2097 93.8216 9.41781C95.3149 8.60327 96.9779 8.196 98.8107 8.196C100.598 8.196 102.216 8.58064 103.664 9.34994C105.112 10.1192 106.243 11.2279 107.058 12.676C107.895 14.1015 108.314 15.7645 108.314 17.6651ZM98.8446 12.2008C97.6454 12.2008 96.6385 12.5402 95.824 13.219C95.0094 13.8978 94.5117 14.8255 94.3307 16.0021H103.325C103.144 14.8481 102.646 13.9318 101.831 13.253C101.017 12.5516 100.021 12.2008 98.8446 12.2008Z" fill="white"/>
<path d="M115.436 26.9984C113.92 26.9984 112.438 26.8174 110.99 26.4554C109.542 26.0707 108.388 25.5956 107.528 25.0299L109.293 21.2287C110.108 21.7491 111.092 22.179 112.246 22.5184C113.4 22.8352 114.531 22.9936 115.64 22.9936C117.88 22.9936 119 22.4392 119 21.3305C119 20.8101 118.694 20.4368 118.083 20.2105C117.473 19.9843 116.534 19.792 115.266 19.6336C113.773 19.4073 112.54 19.1471 111.567 18.853C110.594 18.5588 109.746 18.0384 109.022 17.2918C108.32 16.5451 107.97 15.4817 107.97 14.1015C107.97 12.9475 108.298 11.9293 108.954 11.0469C109.633 10.1419 110.605 9.44044 111.873 8.94266C113.162 8.44489 114.678 8.196 116.42 8.196C117.71 8.196 118.989 8.34307 120.256 8.63721C121.545 8.90872 122.609 9.29337 123.446 9.79115L121.681 13.5584C120.075 12.6534 118.321 12.2008 116.42 12.2008C115.289 12.2008 114.441 12.3592 113.875 12.676C113.309 12.9928 113.026 13.4 113.026 13.8978C113.026 14.4635 113.332 14.8594 113.943 15.0857C114.554 15.312 115.527 15.5269 116.862 15.7305C118.355 15.9794 119.577 16.2509 120.527 16.5451C121.477 16.8166 122.303 17.3257 123.005 18.0724C123.706 18.819 124.057 19.8598 124.057 21.1948C124.057 22.3261 123.717 23.333 123.039 24.2154C122.36 25.0978 121.364 25.7879 120.052 26.2857C118.762 26.7608 117.224 26.9984 115.436 26.9984Z" fill="white"/>
<path d="M124.778 8.46751H130.073V26.7269H124.778V8.46751ZM127.425 5.92206C126.452 5.92206 125.66 5.63923 125.05 5.07357C124.439 4.50792 124.133 3.8065 124.133 2.96933C124.133 2.13216 124.439 1.43074 125.05 0.865088C125.66 0.29943 126.452 0.0166016 127.425 0.0166016C128.398 0.0166016 129.19 0.288117 129.801 0.831149C130.412 1.37418 130.717 2.05297 130.717 2.86751C130.717 3.74994 130.412 4.48529 129.801 5.07357C129.19 5.63923 128.398 5.92206 127.425 5.92206Z" fill="white"/>
<path d="M151.277 8.46751V23.6724C151.277 27.0211 150.406 29.5099 148.664 31.139C146.922 32.7681 144.376 33.5827 141.028 33.5827C139.263 33.5827 137.588 33.3677 136.005 32.9378C134.421 32.5079 133.108 31.8857 132.068 31.0711L134.172 27.2699C134.941 27.9035 135.914 28.4012 137.091 28.7633C138.267 29.1479 139.444 29.3402 140.62 29.3402C142.453 29.3402 143.799 28.9217 144.659 28.0845C145.541 27.2699 145.983 26.0255 145.983 24.3512V23.5705C144.603 25.0865 142.679 25.8445 140.213 25.8445C138.539 25.8445 137 25.4825 135.597 24.7584C134.217 24.0118 133.12 22.9709 132.305 21.636C131.491 20.301 131.083 18.7625 131.083 17.0202C131.083 15.278 131.491 13.7394 132.305 12.4045C133.12 11.0695 134.217 10.04 135.597 9.316C137 8.56933 138.539 8.196 140.213 8.196C142.86 8.196 144.874 9.06711 146.254 10.8093V8.46751H151.277ZM141.265 21.5002C142.668 21.5002 143.811 21.093 144.693 20.2784C145.598 19.4412 146.051 18.3552 146.051 17.0202C146.051 15.6853 145.598 14.6105 144.693 13.796C143.811 12.9588 142.668 12.5402 141.265 12.5402C139.862 12.5402 138.708 12.9588 137.803 13.796C136.898 14.6105 136.446 15.6853 136.446 17.0202C136.446 18.3552 136.898 19.4412 137.803 20.2784C138.708 21.093 139.862 21.5002 141.265 21.5002Z" fill="white"/>
<path d="M164.758 8.196C167.02 8.196 168.842 8.87478 170.222 10.2324C171.625 11.5899 172.326 13.6037 172.326 16.2736V26.7269H167.032V17.0881C167.032 15.64 166.715 14.5653 166.081 13.8639C165.448 13.1398 164.532 12.7778 163.332 12.7778C161.997 12.7778 160.934 13.1964 160.142 14.0336C159.35 14.8481 158.954 16.0699 158.954 17.699V26.7269H153.66V8.46751H158.717V10.6057C159.418 9.8364 160.289 9.24812 161.33 8.84085C162.371 8.41095 163.513 8.196 164.758 8.196Z" fill="white"/>
<path d="M176.583 26.9984C175.655 26.9984 174.874 26.6817 174.241 26.0481C173.607 25.4146 173.29 24.6227 173.29 23.6724C173.29 22.6994 173.607 21.9188 174.241 21.3305C174.874 20.7196 175.655 20.4142 176.583 20.4142C177.51 20.4142 178.291 20.7196 178.924 21.3305C179.558 21.9188 179.875 22.6994 179.875 23.6724C179.875 24.6227 179.558 25.4146 178.924 26.0481C178.291 26.6817 177.51 26.9984 176.583 26.9984Z" fill="white"/>
<path d="M192.015 8.196C194.278 8.196 196.099 8.87478 197.48 10.2324C198.882 11.5899 199.584 13.6037 199.584 16.2736V26.7269H194.289V17.0881C194.289 15.64 193.973 14.5653 193.339 13.8639C192.705 13.1398 191.789 12.7778 190.59 12.7778C189.255 12.7778 188.192 13.1964 187.4 14.0336C186.608 14.8481 186.212 16.0699 186.212 17.699V26.7269H180.917V1.54387H186.212V10.3681C186.913 9.6667 187.762 9.13499 188.757 8.77297C189.753 8.38832 190.839 8.196 192.015 8.196Z" fill="white"/>
<path d="M209.203 8.196C212.031 8.196 214.203 8.87478 215.719 10.2324C217.235 11.5673 217.993 13.5924 217.993 16.3075V26.7269H213.038V24.453C212.042 26.1499 210.187 26.9984 207.472 26.9984C206.069 26.9984 204.847 26.7608 203.806 26.2857C202.788 25.8105 202.007 25.1544 201.464 24.3172C200.921 23.48 200.65 22.5297 200.65 21.4663C200.65 19.7693 201.283 18.4344 202.55 17.4615C203.84 16.4885 205.82 16.0021 208.49 16.0021H212.698C212.698 14.8481 212.348 13.9657 211.646 13.3548C210.945 12.7212 209.893 12.4045 208.49 12.4045C207.517 12.4045 206.555 12.5629 205.605 12.8796C204.677 13.1738 203.885 13.581 203.229 14.1015L201.329 10.4021C202.324 9.70064 203.512 9.15761 204.892 8.77297C206.295 8.38832 207.732 8.196 209.203 8.196ZM208.795 23.4348C209.7 23.4348 210.504 23.2312 211.205 22.8239C211.906 22.394 212.404 21.7718 212.698 20.9572V19.0905H209.067C206.895 19.0905 205.809 19.8033 205.809 21.2287C205.809 21.9075 206.069 22.4505 206.589 22.8578C207.132 23.2425 207.868 23.4348 208.795 23.4348Z" fill="white"/>
<path d="M229.262 26.9984C227.316 26.9984 225.563 26.6025 224.002 25.8105C222.463 24.996 221.253 23.876 220.37 22.4505C219.51 21.0251 219.08 19.4073 219.08 17.5972C219.08 15.7871 219.51 14.1693 220.37 12.7439C221.253 11.3184 222.463 10.2097 224.002 9.41781C225.563 8.60327 227.316 8.196 229.262 8.196C231.186 8.196 232.86 8.60327 234.285 9.41781C235.733 10.2097 236.786 11.3524 237.442 12.8457L233.335 15.0518C232.385 13.3774 231.016 12.5402 229.228 12.5402C227.848 12.5402 226.706 12.9928 225.8 13.8978C224.895 14.8029 224.443 16.036 224.443 17.5972C224.443 19.1584 224.895 20.3916 225.8 21.2966C226.706 22.2017 227.848 22.6542 229.228 22.6542C231.038 22.6542 232.407 21.817 233.335 20.1427L237.442 22.3827C236.786 23.8307 235.733 24.9621 234.285 25.7766C232.86 26.5911 231.186 26.9984 229.262 26.9984Z" fill="white"/>
<path d="M245.652 19.5657L243.107 22.0772V26.7269H237.812V1.54387H243.107V15.7984L250.845 8.46751H257.158L249.555 16.2057L257.836 26.7269H251.422L245.652 19.5657Z" fill="white"/>
<path d="M69.6047 50.9089V41.6527H71.0269V45.6782H71.967L75.2934 41.6527H77.1254L73.3892 46.1121L77.1736 50.9089H75.3417L72.3045 47.004H71.0269V50.9089H69.6047Z" fill="white"/>
<path d="M78.7193 54.38V41.6527H80.0933V43.1231H80.262C80.3665 42.9624 80.5111 42.7575 80.6959 42.5085C80.8847 42.2554 81.1539 42.0304 81.5034 41.8335C81.8569 41.6327 82.335 41.5322 82.9376 41.5322C83.717 41.5322 84.404 41.7271 84.9986 42.1168C85.5932 42.5065 86.0572 43.0589 86.3906 43.774C86.7241 44.4891 86.8908 45.3327 86.8908 46.305C86.8908 47.2852 86.7241 48.1349 86.3906 48.854C86.0572 49.5691 85.5952 50.1235 85.0046 50.5172C84.4141 50.9069 83.7331 51.1018 82.9617 51.1018C82.3672 51.1018 81.8911 51.0034 81.5335 50.8065C81.176 50.6056 80.9008 50.3786 80.708 50.1255C80.5151 49.8684 80.3665 49.6555 80.262 49.4868H80.1415V54.38H78.7193ZM80.1174 46.2808C80.1174 46.9799 80.2198 47.5966 80.4247 48.1309C80.6296 48.6612 80.9289 49.077 81.3226 49.3783C81.7163 49.6756 82.1984 49.8242 82.7689 49.8242C83.3635 49.8242 83.8596 49.6676 84.2574 49.3542C84.6591 49.0368 84.9604 48.611 85.1613 48.0766C85.3662 47.5383 85.4686 46.9397 85.4686 46.2808C85.4686 45.63 85.3682 45.0435 85.1673 44.5212C84.9705 43.9949 84.6712 43.5791 84.2694 43.2738C83.8717 42.9644 83.3715 42.8098 82.7689 42.8098C82.1904 42.8098 81.7043 42.9564 81.3106 43.2497C80.9169 43.5389 80.6196 43.9447 80.4187 44.467C80.2178 44.9852 80.1174 45.5898 80.1174 46.2808Z" fill="white"/>
<path d="M92.9411 51.1018C92.0492 51.1018 91.2799 50.9049 90.6331 50.5112C89.9903 50.1135 89.4941 49.5591 89.1446 48.848C88.7991 48.1329 88.6263 47.3013 88.6263 46.3532C88.6263 45.405 88.7991 44.5694 89.1446 43.8463C89.4941 43.1191 89.9802 42.5527 90.6029 42.1469C91.2297 41.7371 91.9608 41.5322 92.7965 41.5322C93.2785 41.5322 93.7546 41.6126 94.2247 41.7733C94.6947 41.934 95.1226 42.1951 95.5082 42.5567C95.8939 42.9142 96.2012 43.3883 96.4302 43.9789C96.6592 44.5694 96.7737 45.2966 96.7737 46.1603V46.7629H89.6387V45.5336H95.3274C95.3274 45.0113 95.223 44.5453 95.0141 44.1355C94.8092 43.7258 94.5159 43.4023 94.1343 43.1653C93.7566 42.9283 93.3107 42.8098 92.7965 42.8098C92.23 42.8098 91.7399 42.9504 91.3261 43.2316C90.9163 43.5088 90.6009 43.8704 90.38 44.3163C90.159 44.7623 90.0485 45.2403 90.0485 45.7505V46.5701C90.0485 47.2691 90.169 47.8617 90.4101 48.3478C90.6552 48.8299 90.9946 49.1975 91.4285 49.4506C91.8624 49.6997 92.3666 49.8242 92.9411 49.8242C93.3147 49.8242 93.6522 49.772 93.9535 49.6676C94.2588 49.5591 94.5219 49.3984 94.7429 49.1855C94.9639 48.9685 95.1346 48.6994 95.2551 48.378L96.6291 48.7636C96.4845 49.2297 96.2414 49.6394 95.8999 49.993C95.5585 50.3425 95.1366 50.6157 94.6344 50.8125C94.1323 51.0054 93.5678 51.1018 92.9411 51.1018Z" fill="white"/>
<path d="M101.661 51.1259C101.074 51.1259 100.542 51.0154 100.064 50.7945C99.5859 50.5695 99.2063 50.2461 98.9251 49.8242C98.6438 49.3984 98.5032 48.8842 98.5032 48.2815C98.5032 47.7512 98.6077 47.3214 98.8166 46.9919C99.0255 46.6585 99.3047 46.3974 99.6542 46.2085C100.004 46.0197 100.389 45.8791 100.811 45.7867C101.237 45.6903 101.665 45.614 102.095 45.5577C102.657 45.4854 103.113 45.4312 103.463 45.395C103.816 45.3548 104.073 45.2885 104.234 45.1961C104.399 45.1037 104.481 44.943 104.481 44.714V44.6658C104.481 44.0713 104.318 43.6092 103.993 43.2798C103.672 42.9504 103.184 42.7857 102.529 42.7857C101.85 42.7857 101.317 42.9343 100.932 43.2316C100.546 43.5289 100.275 43.8463 100.118 44.1837L98.7684 43.7016C99.0094 43.1392 99.3308 42.7013 99.7326 42.3879C100.138 42.0706 100.58 41.8496 101.058 41.7251C101.54 41.5965 102.014 41.5322 102.481 41.5322C102.778 41.5322 103.119 41.5684 103.505 41.6407C103.895 41.709 104.27 41.8516 104.632 42.0686C104.997 42.2855 105.301 42.6129 105.542 43.0508C105.783 43.4887 105.903 44.0753 105.903 44.8105V50.9089H104.481V49.6555H104.409C104.312 49.8564 104.152 50.0713 103.927 50.3003C103.702 50.5293 103.403 50.7241 103.029 50.8848C102.655 51.0455 102.199 51.1259 101.661 51.1259ZM101.878 49.8483C102.44 49.8483 102.914 49.7379 103.3 49.5169C103.69 49.2959 103.983 49.0107 104.18 48.6612C104.381 48.3117 104.481 47.9441 104.481 47.5584V46.2567C104.421 46.3291 104.288 46.3953 104.083 46.4556C103.883 46.5119 103.65 46.5621 103.384 46.6063C103.123 46.6464 102.868 46.6826 102.619 46.7147C102.374 46.7429 102.175 46.767 102.023 46.787C101.653 46.8353 101.307 46.9136 100.986 47.0221C100.669 47.1265 100.412 47.2852 100.215 47.4981C100.022 47.707 99.9254 47.9923 99.9254 48.3539C99.9254 48.848 100.108 49.2216 100.474 49.4747C100.843 49.7238 101.311 49.8483 101.878 49.8483Z" fill="white"/>
<path d="M107.24 42.9785V41.6527H114.76V42.9785H111.723V50.9089H110.301V42.9785H107.24Z" fill="white"/>
<path d="M118.257 48.8118L122.716 41.6527H124.356V50.9089H122.933V43.7499L118.498 50.9089H116.835V41.6527H118.257V48.8118Z" fill="white"/>
<path d="M126.96 50.9089V41.6527H130.745C131.741 41.6527 132.533 41.8777 133.119 42.3277C133.706 42.7776 133.999 43.3722 133.999 44.1114C133.999 44.6739 133.832 45.1098 133.499 45.4191C133.165 45.7244 132.737 45.9313 132.215 46.0398C132.557 46.088 132.888 46.2085 133.209 46.4014C133.535 46.5942 133.804 46.8594 134.017 47.1968C134.23 47.5303 134.336 47.9401 134.336 48.4262C134.336 48.9002 134.216 49.3241 133.975 49.6977C133.734 50.0713 133.388 50.3666 132.938 50.5835C132.488 50.8005 131.95 50.9089 131.323 50.9089H126.96ZM128.31 49.6073H131.323C131.813 49.6073 132.197 49.4908 132.474 49.2578C132.751 49.0248 132.89 48.7074 132.89 48.3056C132.89 47.8276 132.751 47.4519 132.474 47.1787C132.197 46.9015 131.813 46.7629 131.323 46.7629H128.31V49.6073ZM128.31 45.5336H130.745C131.126 45.5336 131.454 45.4814 131.727 45.3769C132 45.2685 132.209 45.1158 132.354 44.9189C132.502 44.7181 132.577 44.481 132.577 44.2078C132.577 43.8182 132.414 43.5128 132.089 43.2919C131.763 43.0669 131.315 42.9544 130.745 42.9544H128.31V45.5336Z" fill="white"/>
<path d="M137.719 45.0033H140.37C141.455 45.0033 142.284 45.2785 142.859 45.8289C143.433 46.3793 143.721 47.0763 143.721 47.92C143.721 48.4744 143.592 48.9786 143.335 49.4325C143.078 49.8825 142.7 50.2421 142.202 50.5112C141.704 50.7764 141.093 50.9089 140.37 50.9089H136.489V41.6527H137.911V49.5832H140.37C140.933 49.5832 141.395 49.4345 141.756 49.1373C142.118 48.84 142.298 48.4583 142.298 47.9923C142.298 47.5022 142.118 47.1024 141.756 46.7931C141.395 46.4837 140.933 46.3291 140.37 46.3291H137.719V45.0033ZM145.191 50.9089V41.6527H146.613V50.9089H145.191Z" fill="white"/>
<path d="M0 16.9697C0 8.97011 0 4.97031 2.48515 2.48515C4.97031 0 8.97011 0 16.9697 0H39.0303C47.0299 0 51.0297 0 53.5148 2.48515C56 4.97031 56 8.97011 56 16.9697V39.0303C56 47.0299 56 51.0297 53.5148 53.5148C51.0297 56 47.0299 56 39.0303 56H16.9697C8.97011 56 4.97031 56 2.48515 53.5148C0 51.0297 0 47.0299 0 39.0303V16.9697Z" fill="url(#paint0_linear_3_41)"/>
<path d="M19.0045 18.9575C19.285 17.5553 20.5162 16.5459 21.9463 16.5459H29.8044C32.2481 16.5459 34.3636 16.9532 36.1511 17.7677C37.9386 18.5596 39.3075 19.7136 40.2578 21.2295C41.2307 22.7229 41.7172 24.4877 41.7172 26.5241C41.7172 29.2845 41.0836 31.7055 39.8166 33.7871C38.5721 35.8687 36.8299 37.4752 34.5899 38.6065C32.3499 39.7378 29.7818 40.3035 26.8857 40.3035H18.3948C16.5016 40.3035 15.0817 38.5715 15.453 36.7151L19.0045 18.9575ZM27.0893 34.9411C28.7184 34.9411 30.1212 34.6017 31.2978 33.9229C32.497 33.2215 33.402 32.2712 34.0129 31.072C34.6238 29.8501 34.9293 28.4699 34.9293 26.9314C34.9293 25.3249 34.4315 24.0918 33.436 23.232C32.4404 22.3495 30.981 21.9083 29.0578 21.9083H25.1208L22.5414 34.9411H27.0893Z" fill="white"/>
<defs>
<linearGradient id="paint0_linear_3_41" x1="2.54545" y1="52.6061" x2="62.3636" y2="10.1818" gradientUnits="userSpaceOnUse">
<stop stop-color="#3322F8"/>
<stop offset="0.599746" stop-color="#7468FF"/>
<stop offset="1" stop-color="#3322F8"/>
</linearGradient>
</defs>
</svg>
