<svg width="159" height="400" viewBox="0 0 159 400" fill="none" xmlns="http://www.w3.org/2000/svg">
<path d="M103.403 88.8C103.403 169.6 16.2031 183.2 16.2031 265.6V300H143.403V260H60.2031C59.8031 258 59.8031 256 59.8031 254C59.8031 208 147.403 175.2 147.403 87.2C147.403 42.4 125.003 16.8 81.8031 16.8C38.6031 16.8 16.2031 42.4 16.2031 87.2V114.4H57.8031V84.4C57.8031 64.4 66.6031 56.8 80.6031 56.8C94.6031 56.8 103.403 63.6 103.403 88.8Z" fill="#272727"/>
<path d="M16.2031 300H13.2031V303H16.2031V300ZM143.403 300V303H146.403V300H143.403ZM143.403 260H146.403V257H143.403V260ZM60.2031 260L57.2614 260.588L57.7437 263H60.2031V260ZM16.2031 114.4H13.2031V117.4H16.2031V114.4ZM57.8031 114.4V117.4H60.8031V114.4H57.8031ZM100.403 88.8C100.403 127.907 79.4416 150.718 57.5909 174.574C35.8166 198.346 13.2031 223.122 13.2031 265.6H19.2031C19.2031 225.678 40.1897 202.454 62.0154 178.626C83.7647 154.882 106.403 130.493 106.403 88.8H100.403ZM13.2031 265.6V300H19.2031V265.6H13.2031ZM16.2031 303H143.403V297H16.2031V303ZM146.403 300V260H140.403V300H146.403ZM143.403 257H60.2031V263H143.403V257ZM63.1449 259.412C62.8126 257.75 62.8031 256.046 62.8031 254H56.8031C56.8031 255.954 56.7937 258.25 57.2614 260.588L63.1449 259.412ZM62.8031 254C62.8031 243.479 67.8074 233.453 75.8882 222.71C84.014 211.906 94.7434 200.991 105.858 188.329C127.884 163.235 150.403 132.328 150.403 87.2H144.403C144.403 130.072 123.122 159.565 101.348 184.371C90.5629 196.659 79.3923 208.069 71.0931 219.103C62.7489 230.197 56.8031 241.521 56.8031 254H62.8031ZM150.403 87.2C150.403 64.3376 144.688 45.9071 133.015 33.1728C121.302 20.3955 104.004 13.8 81.8031 13.8V19.8C102.803 19.8 118.304 26.0045 128.592 37.2272C138.919 48.4929 144.403 65.2624 144.403 87.2H150.403ZM81.8031 13.8C59.6026 13.8 42.3042 20.3955 30.5917 33.1728C18.9186 45.9071 13.2031 64.3376 13.2031 87.2H19.2031C19.2031 65.2624 24.6877 48.4929 35.0146 37.2272C45.302 26.0045 60.8036 19.8 81.8031 19.8V13.8ZM13.2031 87.2V114.4H19.2031V87.2H13.2031ZM16.2031 117.4H57.8031V111.4H16.2031V117.4ZM60.8031 114.4V84.4H54.8031V114.4H60.8031ZM60.8031 84.4C60.8031 74.7725 62.9298 68.7307 66.1855 65.1041C69.3829 61.5424 74.1347 59.8 80.6031 59.8V53.8C73.0715 53.8 66.4233 55.8575 61.7207 61.0959C57.0765 66.2692 54.8031 74.0274 54.8031 84.4H60.8031ZM80.6031 59.8C87.137 59.8 91.7744 61.3735 94.927 65.2445C98.2167 69.2837 100.403 76.4223 100.403 88.8H106.403C106.403 75.9777 104.19 67.1163 99.5793 61.4555C94.8319 55.6265 88.0693 53.8 80.6031 53.8V59.8Z" fill="url(#paint0_linear_5_84)"/>
<defs>
<linearGradient id="paint0_linear_5_84" x1="79.5" y1="29" x2="79.5" y2="232" gradientUnits="userSpaceOnUse">
<stop stop-color="#3322F8"/>
<stop offset="1" stop-color="#3322F8" stop-opacity="0"/>
</linearGradient>
</defs>
</svg>
