<svg width="159" height="400" viewBox="0 0 159 400" fill="none" xmlns="http://www.w3.org/2000/svg">
<path d="M43.2 86.4H77.2V300H121.2V20H91.6C84.8 38.8 77.2 55.2 43.2 55.2V86.4Z" fill="#272727"/>
<path d="M43.2 86.4H41.2V88.4H43.2V86.4ZM77.2 86.4H79.2V84.4H77.2V86.4ZM77.2 300H75.2V302H77.2V300ZM121.2 300V302H123.2V300H121.2ZM121.2 20H123.2V18H121.2V20ZM91.6 20V18H90.1966L89.7193 19.3197L91.6 20ZM43.2 55.2V53.2H41.2V55.2H43.2ZM43.2 88.4H77.2V84.4H43.2V88.4ZM75.2 86.4V300H79.2V86.4H75.2ZM77.2 302H121.2V298H77.2V302ZM123.2 300V20H119.2V300H123.2ZM121.2 18H91.6V22H121.2V18ZM89.7193 19.3197C86.3131 28.7367 82.8457 37.0969 76.2448 43.1792C69.7238 49.1877 59.8703 53.2 43.2 53.2V57.2C60.5297 57.2 71.4762 53.0122 78.9553 46.1208C86.3543 39.3031 90.0869 30.0632 93.4808 20.6803L89.7193 19.3197ZM41.2 55.2V86.4H45.2V55.2H41.2Z" fill="url(#paint0_linear_4_78)"/>
<defs>
<linearGradient id="paint0_linear_4_78" x1="79.5" y1="0" x2="79" y2="190" gradientUnits="userSpaceOnUse">
<stop stop-color="white"/>
<stop offset="1" stop-color="white" stop-opacity="0"/>
</linearGradient>
</defs>
</svg>
