<svg width="138" height="290" viewBox="0 0 138 290" fill="none" xmlns="http://www.w3.org/2000/svg">
<path d="M1.70312 287V288.5H3.20312H130.403H131.903V287V247V245.5H130.403H48.4819C48.306 244.057 48.3031 242.581 48.3031 241C48.3031 229.989 53.5427 219.639 61.6894 208.808C67.2193 201.456 73.9729 194.022 81.1816 186.088C84.6221 182.301 88.1662 178.4 91.7305 174.339C113.694 149.317 135.903 118.764 135.903 74.1998C135.903 51.5686 130.245 33.5533 118.909 21.1862C107.553 8.79754 90.7034 2.2998 68.8031 2.2998C46.9029 2.2998 30.0537 8.79754 18.6974 21.1862C7.36086 33.5533 1.70312 51.5686 1.70312 74.1998V101.4V102.9H3.20312H44.8031H46.3031V101.4V71.3998C46.3031 61.5861 48.4665 55.1152 52.0693 51.1018C55.643 47.121 60.8689 45.2998 67.6031 45.2998C74.37 45.2998 79.5387 46.9366 83.0901 51.297C86.7099 55.7417 88.9031 63.311 88.9031 75.7998C88.9031 115.418 67.668 138.6 45.9205 162.343L45.697 162.587C23.9098 186.373 1.70312 210.761 1.70312 252.6V287Z" fill="#272727" stroke="url(#paint0_linear_519_4)" stroke-width="3"/>
<defs>
<linearGradient id="paint0_linear_519_4" x1="66.5" y1="16" x2="66.5" y2="219" gradientUnits="userSpaceOnUse">
<stop stop-color="#3322F8"/>
<stop offset="1" stop-color="#3322F8" stop-opacity="0"/>
</linearGradient>
</defs>
</svg>
