<svg width="159" height="400" viewBox="0 0 159 400" fill="none" xmlns="http://www.w3.org/2000/svg">
<path d="M101.003 104.4C101.003 126.8 91.0031 134 74.6031 134H57.4031V174H72.2031C92.2031 174 101.003 183.6 101.003 209.6V231.6C101.003 256.4 92.2031 263.2 78.2031 263.2C64.2031 263.2 55.4031 255.6 55.4031 235.6V209.6H13.8031V232.8C13.8031 277.6 36.2031 303.2 79.4031 303.2C122.603 303.2 145.003 277.6 145.003 232.8V210.8C145.003 182.4 136.203 161.6 114.203 152C135.403 143.2 145.003 124.4 145.003 94.4V87.2C145.003 42.4 122.603 16.8 79.4031 16.8C36.2031 16.8 13.8031 42.4 13.8031 87.2V102.4H55.4031V84.4C55.4031 64.4 64.2031 56.8 78.2031 56.8C92.2031 56.8 101.003 63.6 101.003 88.8V104.4Z" fill="#2C2C2C"/>
<path d="M57.4031 134V132H55.4031V134H57.4031ZM57.4031 174H55.4031V176H57.4031V174ZM55.4031 209.6H57.4031V207.6H55.4031V209.6ZM13.8031 209.6V207.6H11.8031V209.6H13.8031ZM114.203 152L113.436 150.153L109.097 151.954L113.403 153.833L114.203 152ZM13.8031 102.4H11.8031V104.4H13.8031V102.4ZM55.4031 102.4V104.4H57.4031V102.4H55.4031ZM99.0031 104.4C99.0031 115.352 96.5526 122.128 92.5312 126.194C88.5188 130.25 82.5544 132 74.6031 132V136C83.0518 136 90.2874 134.15 95.375 129.006C100.454 123.872 103.003 115.848 103.003 104.4H99.0031ZM74.6031 132H57.4031V136H74.6031V132ZM55.4031 134V174H59.4031V134H55.4031ZM57.4031 176H72.2031V172H57.4031V176ZM72.2031 176C81.9121 176 88.4042 178.326 92.5656 183.329C96.8078 188.429 99.0031 196.737 99.0031 209.6H103.003C103.003 196.463 100.798 186.971 95.6407 180.771C90.4021 174.474 82.4942 172 72.2031 172V176ZM99.0031 209.6V231.6H103.003V209.6H99.0031ZM99.0031 231.6C99.0031 243.846 96.8142 251.169 93.3088 255.429C89.8903 259.583 84.8937 261.2 78.2031 261.2V265.2C85.5125 265.2 91.916 263.417 96.3975 257.971C100.792 252.631 103.003 244.154 103.003 231.6H99.0031ZM78.2031 261.2C71.5575 261.2 66.4897 259.405 63.0414 255.564C59.5542 251.68 57.4031 245.352 57.4031 235.6H53.4031C53.4031 245.848 55.652 253.32 60.0649 258.236C64.5166 263.195 70.8487 265.2 78.2031 265.2V261.2ZM57.4031 235.6V209.6H53.4031V235.6H57.4031ZM55.4031 207.6H13.8031V211.6H55.4031V207.6ZM11.8031 209.6V232.8H15.8031V209.6H11.8031ZM11.8031 232.8C11.8031 255.508 17.4801 273.662 28.9288 286.151C40.4039 298.67 57.4028 305.2 79.4031 305.2V301.2C58.2035 301.2 42.4024 294.93 31.8774 283.449C21.3261 271.938 15.8031 254.892 15.8031 232.8H11.8031ZM79.4031 305.2C101.403 305.2 118.402 298.67 129.877 286.151C141.326 273.662 147.003 255.508 147.003 232.8H143.003C143.003 254.892 137.48 271.938 126.929 283.449C116.404 294.93 100.603 301.2 79.4031 301.2V305.2ZM147.003 232.8V210.8H143.003V232.8H147.003ZM147.003 210.8C147.003 182.014 138.045 160.222 115.003 150.167L113.403 153.833C134.361 162.978 143.003 182.786 143.003 210.8H147.003ZM114.97 153.847C125.974 149.279 134.041 142.07 139.321 132.085C144.576 122.148 147.003 109.592 147.003 94.4H143.003C143.003 109.208 140.631 121.052 135.785 130.215C130.965 139.33 123.632 145.921 113.436 150.153L114.97 153.847ZM147.003 94.4V87.2H143.003V94.4H147.003ZM147.003 87.2C147.003 64.4917 141.326 46.338 129.877 33.8485C118.402 21.3303 101.403 14.8 79.4031 14.8V18.8C100.603 18.8 116.404 25.0697 126.929 36.5514C137.48 48.0619 143.003 65.1083 143.003 87.2H147.003ZM79.4031 14.8C57.4028 14.8 40.4039 21.3303 28.9288 33.8485C17.4801 46.338 11.8031 64.4917 11.8031 87.2H15.8031C15.8031 65.1083 21.3261 48.0619 31.8774 36.5514C42.4024 25.0697 58.2035 18.8 79.4031 18.8V14.8ZM11.8031 87.2V102.4H15.8031V87.2H11.8031ZM13.8031 104.4H55.4031V100.4H13.8031V104.4ZM57.4031 102.4V84.4H53.4031V102.4H57.4031ZM57.4031 84.4C57.4031 74.6484 59.5542 68.3205 63.0414 64.436C66.4897 60.5949 71.5575 58.8 78.2031 58.8V54.8C70.8487 54.8 64.5166 56.805 60.0649 61.7639C55.652 66.6795 53.4031 74.1516 53.4031 84.4H57.4031ZM78.2031 58.8C84.8924 58.8 89.8839 60.4157 93.3024 64.613C96.8122 68.9225 99.0031 76.3482 99.0031 88.8H103.003C103.003 76.0518 100.794 67.4775 96.4039 62.087C91.9223 56.5843 85.5139 54.8 78.2031 54.8V58.8ZM99.0031 88.8V104.4H103.003V88.8H99.0031Z" fill="url(#paint0_linear_5_81)"/>
<defs>
<linearGradient id="paint0_linear_5_81" x1="79.5" y1="0" x2="79" y2="190" gradientUnits="userSpaceOnUse">
<stop stop-color="white"/>
<stop offset="1" stop-color="white" stop-opacity="0"/>
</linearGradient>
</defs>
</svg>
