<svg width="137" height="292" viewBox="0 0 137 292" fill="none" xmlns="http://www.w3.org/2000/svg">
<path d="M46.4031 119H45.4031V120V160V161H46.4031H61.2031C71.0576 161 77.9036 163.363 82.3343 168.689C86.8054 174.064 89.0031 182.668 89.0031 195.6V217.6C89.0031 229.923 86.8086 237.535 83.0809 242.064C79.3967 246.541 74.0484 248.2 67.2031 248.2C60.3803 248.2 54.9964 246.352 51.2972 242.232C47.5787 238.09 45.4031 231.476 45.4031 221.6V195.6V194.6H44.4031H2.8031H1.8031V195.6V218.8C1.8031 241.354 7.44159 259.231 18.6659 271.476C29.9035 283.735 46.6029 290.2 68.4031 290.2C90.2033 290.2 106.903 283.735 118.14 271.476C129.365 259.231 135.003 241.354 135.003 218.8V196.8C135.003 169.086 126.662 148.228 105.643 138.023C115.395 133.517 122.606 126.754 127.437 117.617C132.589 107.874 135.003 95.4959 135.003 80.3998V73.1998C135.003 50.6457 129.365 32.7688 118.14 20.5241C106.903 8.26496 90.2033 1.7998 68.4031 1.7998C46.6029 1.7998 29.9035 8.26496 18.6659 20.5241C7.44159 32.7688 1.8031 50.6457 1.8031 73.1998V88.3998V89.3998H2.8031H44.4031H45.4031V88.3998V70.3998C45.4031 60.524 47.5787 53.91 51.2972 49.7678C54.9964 45.6473 60.3803 43.7998 67.2031 43.7998C74.0477 43.7998 79.3935 45.4576 83.0777 49.9813C86.8076 54.561 89.0031 62.2739 89.0031 74.7998V90.3998C89.0031 101.476 86.5278 108.564 82.2421 112.897C77.961 117.225 71.6788 119 63.6031 119H46.4031Z" fill="#2C2C2C" stroke="url(#paint0_linear_520_5)" stroke-width="2"/>
<defs>
<linearGradient id="paint0_linear_520_5" x1="68.5" y1="-14" x2="68" y2="176" gradientUnits="userSpaceOnUse">
<stop stop-color="white"/>
<stop offset="1" stop-color="white" stop-opacity="0"/>
</linearGradient>
</defs>
</svg>
